<?xml version="1.0" standalone="no"?>
<svg xmlns:xlink="http://www.w3.org/1999/xlink" id="wave" style="transform:rotate(180deg); transition: 0.3s" viewBox="0 0 1440 130" version="1.1" xmlns="http://www.w3.org/2000/svg"><defs><linearGradient id="sw-gradient-0" x1="0" x2="0" y1="1" y2="0"><stop stop-color="rgba(255, 249, 234, 1)" offset="0%"/><stop stop-color="rgba(255, 249, 234, 1)" offset="100%"/></linearGradient></defs><path style="transform:translate(0, 0px); opacity:1" fill="url(#sw-gradient-0)" d="M0,26L40,34.7C80,43,160,61,240,69.3C320,78,400,78,480,65C560,52,640,26,720,30.3C800,35,880,69,960,69.3C1040,69,1120,35,1200,36.8C1280,39,1360,78,1440,84.5C1520,91,1600,65,1680,65C1760,65,1840,91,1920,84.5C2000,78,2080,39,2160,26C2240,13,2320,26,2400,34.7C2480,43,2560,48,2640,43.3C2720,39,2800,26,2880,28.2C2960,30,3040,48,3120,65C3200,82,3280,100,3360,101.8C3440,104,3520,91,3600,78C3680,65,3760,52,3840,43.3C3920,35,4000,30,4080,28.2C4160,26,4240,26,4320,21.7C4400,17,4480,9,4560,19.5C4640,30,4720,61,4800,67.2C4880,74,4960,56,5040,60.7C5120,65,5200,91,5280,104C5360,117,5440,117,5520,117C5600,117,5680,117,5720,117L5760,117L5760,130L5720,130C5680,130,5600,130,5520,130C5440,130,5360,130,5280,130C5200,130,5120,130,5040,130C4960,130,4880,130,4800,130C4720,130,4640,130,4560,130C4480,130,4400,130,4320,130C4240,130,4160,130,4080,130C4000,130,3920,130,3840,130C3760,130,3680,130,3600,130C3520,130,3440,130,3360,130C3280,130,3200,130,3120,130C3040,130,2960,130,2880,130C2800,130,2720,130,2640,130C2560,130,2480,130,2400,130C2320,130,2240,130,2160,130C2080,130,2000,130,1920,130C1840,130,1760,130,1680,130C1600,130,1520,130,1440,130C1360,130,1280,130,1200,130C1120,130,1040,130,960,130C880,130,800,130,720,130C640,130,560,130,480,130C400,130,320,130,240,130C160,130,80,130,40,130L0,130Z"/></svg>